<svg id="svg" version="1.1" xmlns="http://www.w3.org/2000/svg" xmlns:xlink="http://www.w3.org/1999/xlink" width="400" height="396.011396011396" viewBox="0, 0, 400,396.011396011396"><g id="svgg"><path id="path0" d="M185.644 14.942 C 182.208 15.018,179.802 15.229,179.802 15.456 C 179.802 15.668,178.955 15.841,177.921 15.840 C 175.157 15.839,167.390 16.683,166.931 17.034 C 166.713 17.201,165.376 17.466,163.960 17.624 C 162.545 17.781,161.208 18.046,160.990 18.213 C 160.772 18.380,159.569 18.640,158.317 18.792 C 157.064 18.943,156.040 19.215,156.040 19.396 C 156.040 19.576,154.970 19.848,153.663 20.000 C 152.356 20.152,151.287 20.401,151.287 20.554 C 151.287 20.707,149.946 21.071,148.306 21.362 C 146.667 21.653,145.240 22.030,145.136 22.199 C 145.032 22.367,144.234 22.626,143.364 22.773 C 142.494 22.920,141.782 23.182,141.782 23.356 C 141.782 23.530,140.980 23.793,140.000 23.940 C 139.020 24.087,138.218 24.363,138.218 24.554 C 138.218 24.746,137.416 25.022,136.436 25.169 C 135.455 25.316,134.653 25.605,134.653 25.811 C 134.653 26.017,134.488 26.083,134.285 25.958 C 134.082 25.832,133.817 25.891,133.695 26.087 C 133.574 26.284,132.848 26.562,132.084 26.706 C 131.319 26.849,130.693 27.117,130.693 27.301 C 130.693 27.484,130.069 27.752,129.307 27.895 C 128.545 28.038,127.921 28.305,127.921 28.489 C 127.921 28.672,127.297 28.940,126.535 29.083 C 125.772 29.226,125.149 29.490,125.149 29.669 C 125.149 29.849,124.347 30.221,123.366 30.495 C 122.386 30.769,121.584 31.141,121.584 31.321 C 121.584 31.500,120.960 31.764,120.198 31.907 C 119.436 32.050,118.812 32.326,118.812 32.519 C 118.812 32.713,118.539 32.871,118.205 32.871 C 117.872 32.871,117.496 33.139,117.371 33.465 C 117.246 33.792,116.939 34.065,116.690 34.072 C 116.441 34.079,115.347 34.523,114.257 35.058 C 113.168 35.594,112.054 36.034,111.782 36.036 C 111.510 36.038,111.287 36.218,111.287 36.436 C 111.287 36.653,111.014 36.832,110.681 36.832 C 110.347 36.832,109.976 37.088,109.855 37.402 C 109.735 37.715,109.117 38.086,108.482 38.225 C 107.846 38.365,107.327 38.631,107.327 38.818 C 107.327 39.004,106.703 39.382,105.941 39.658 C 105.178 39.934,104.554 40.302,104.554 40.476 C 104.554 40.650,104.282 40.792,103.948 40.792 C 103.614 40.792,103.239 41.059,103.114 41.386 C 102.988 41.713,102.665 41.980,102.394 41.980 C 102.124 41.980,101.475 42.333,100.952 42.765 C 99.433 44.017,99.272 44.127,98.020 44.752 C 96.667 45.429,96.230 45.743,94.717 47.129 C 94.122 47.673,93.152 48.338,92.560 48.605 C 91.969 48.873,91.485 49.274,91.485 49.496 C 91.485 49.719,91.254 49.901,90.972 49.901 C 90.689 49.901,90.021 50.428,89.486 51.072 C 88.952 51.717,88.291 52.251,88.017 52.260 C 87.743 52.270,87.132 52.723,86.659 53.267 C 86.185 53.812,85.631 54.257,85.427 54.257 C 85.223 54.257,84.364 54.970,83.518 55.842 C 82.673 56.713,81.872 57.426,81.739 57.426 C 81.444 57.426,79.961 58.758,78.283 60.533 C 77.594 61.262,76.699 62.154,76.294 62.514 C 75.345 63.358,72.467 66.236,71.623 67.185 C 71.262 67.590,70.371 68.476,69.642 69.156 C 68.155 70.541,66.931 71.970,66.931 72.321 C 66.931 72.449,66.129 73.311,65.149 74.237 C 64.168 75.163,63.366 76.093,63.366 76.305 C 63.366 76.516,62.921 77.076,62.376 77.550 C 61.832 78.023,61.386 78.599,61.386 78.828 C 61.386 79.058,60.941 79.659,60.396 80.163 C 59.851 80.668,59.406 81.282,59.406 81.527 C 59.406 81.773,59.050 82.196,58.614 82.468 C 58.178 82.740,57.822 83.189,57.822 83.465 C 57.822 83.742,57.465 84.273,57.030 84.646 C 56.594 85.019,56.238 85.537,56.238 85.798 C 56.238 86.058,56.104 86.330,55.941 86.403 C 55.547 86.578,54.074 88.729,53.748 89.604 C 53.606 89.985,53.306 90.297,53.082 90.297 C 52.857 90.297,52.673 90.537,52.673 90.830 C 52.673 91.300,52.332 91.805,50.716 93.728 C 50.503 93.982,50.210 94.665,50.064 95.246 C 49.918 95.826,49.566 96.391,49.280 96.501 C 48.995 96.610,48.650 97.205,48.515 97.822 C 48.379 98.439,48.012 99.042,47.699 99.162 C 47.385 99.283,47.129 99.654,47.129 99.988 C 47.129 100.321,46.965 100.594,46.764 100.594 C 46.564 100.594,46.282 101.129,46.139 101.782 C 45.995 102.436,45.747 102.970,45.587 102.970 C 45.427 102.970,45.052 103.594,44.752 104.356 C 44.453 105.119,44.083 105.743,43.929 105.743 C 43.776 105.743,43.528 106.231,43.378 106.828 C 43.228 107.425,42.986 108.004,42.840 108.115 C 42.445 108.415,40.120 113.242,39.547 114.950 C 39.273 115.767,38.921 116.436,38.764 116.436 C 38.607 116.436,38.353 117.015,38.199 117.723 C 38.045 118.431,37.674 119.361,37.375 119.791 C 37.076 120.221,36.832 120.978,36.832 121.474 C 36.832 121.970,36.668 122.376,36.467 122.376 C 36.267 122.376,35.982 122.955,35.834 123.663 C 35.687 124.371,35.329 125.325,35.039 125.784 C 34.750 126.242,34.391 127.269,34.241 128.065 C 34.092 128.862,33.827 129.602,33.653 129.709 C 33.479 129.817,33.216 130.617,33.069 131.487 C 32.922 132.357,32.650 133.069,32.465 133.069 C 32.279 133.069,32.007 133.871,31.860 134.851 C 31.713 135.832,31.464 136.634,31.306 136.634 C 31.147 136.634,30.790 137.926,30.512 139.505 C 30.234 141.084,29.865 142.554,29.692 142.772 C 29.519 142.990,29.253 143.837,29.100 144.653 C 28.948 145.470,28.672 146.139,28.489 146.139 C 28.305 146.139,28.038 146.762,27.895 147.525 C 27.752 148.287,27.490 148.911,27.314 148.911 C 27.138 148.911,26.870 149.490,26.718 150.198 C 26.567 150.906,26.309 151.663,26.145 151.881 C 25.981 152.099,25.627 153.213,25.359 154.356 C 25.091 155.500,24.734 156.436,24.566 156.436 C 24.398 156.436,24.142 157.327,23.998 158.416 C 23.853 159.505,23.574 160.396,23.377 160.396 C 23.180 160.396,22.899 161.198,22.752 162.178 C 22.605 163.158,22.345 163.960,22.174 163.960 C 22.004 163.960,21.639 165.475,21.363 167.327 C 21.088 169.178,20.734 170.693,20.576 170.693 C 20.418 170.693,20.167 171.673,20.017 172.871 C 19.867 174.069,19.598 175.050,19.419 175.050 C 19.239 175.050,18.966 176.475,18.812 178.218 C 18.658 179.960,18.391 181.386,18.219 181.386 C 18.047 181.386,17.777 183.035,17.619 185.050 C 17.461 187.064,17.196 188.802,17.030 188.911 C 15.637 189.828,15.632 231.948,17.024 232.871 C 17.189 232.980,17.451 234.629,17.608 236.535 C 17.765 238.441,18.034 240.000,18.207 240.000 C 18.380 240.000,18.646 241.337,18.799 242.970 C 18.952 244.604,19.220 245.941,19.394 245.941 C 19.568 245.941,19.833 246.921,19.983 248.119 C 20.133 249.317,20.388 250.297,20.552 250.297 C 20.715 250.297,21.061 251.670,21.322 253.347 C 21.583 255.025,21.954 256.495,22.147 256.615 C 22.339 256.734,22.623 257.678,22.778 258.713 C 22.933 259.748,23.198 260.594,23.366 260.594 C 23.535 260.594,23.793 261.396,23.940 262.376 C 24.087 263.356,24.354 264.158,24.534 264.158 C 24.714 264.158,25.079 265.317,25.347 266.733 C 25.614 268.149,25.982 269.307,26.166 269.307 C 26.349 269.307,26.616 269.931,26.759 270.693 C 26.902 271.455,27.157 272.079,27.327 272.079 C 27.496 272.079,27.752 272.703,27.895 273.465 C 28.038 274.228,28.325 274.851,28.533 274.851 C 28.741 274.851,28.911 275.284,28.911 275.813 C 28.911 276.342,29.169 277.034,29.485 277.350 C 29.801 277.666,30.167 278.436,30.298 279.061 C 30.549 280.256,32.088 283.619,32.543 283.964 C 32.689 284.075,32.931 284.655,33.081 285.251 C 33.231 285.848,33.512 286.337,33.706 286.337 C 33.901 286.337,34.059 286.533,34.059 286.772 C 34.059 287.444,36.168 291.881,36.487 291.881 C 36.642 291.881,36.886 292.416,37.030 293.069 C 37.173 293.723,37.441 294.257,37.624 294.257 C 37.807 294.257,38.071 294.777,38.211 295.412 C 38.350 296.048,38.698 296.657,38.983 296.767 C 39.269 296.876,39.623 297.447,39.771 298.036 C 39.918 298.624,40.253 299.345,40.515 299.638 C 41.620 300.875,41.898 301.294,42.156 302.110 C 42.307 302.583,42.596 302.970,42.799 302.970 C 43.002 302.970,43.168 303.229,43.168 303.545 C 43.168 303.861,43.391 304.262,43.664 304.436 C 43.937 304.610,44.427 305.287,44.753 305.941 C 45.079 306.594,45.569 307.364,45.842 307.652 C 46.114 307.940,46.337 308.411,46.337 308.699 C 46.337 308.987,46.604 309.325,46.931 309.450 C 47.257 309.576,47.525 309.951,47.525 310.285 C 47.525 310.618,47.707 310.891,47.929 310.891 C 48.152 310.891,48.549 311.364,48.813 311.942 C 49.076 312.520,49.800 313.545,50.422 314.219 C 52.441 316.408,52.673 316.696,52.673 317.004 C 52.673 317.170,53.297 317.931,54.059 318.693 C 54.822 319.455,55.446 320.235,55.446 320.424 C 55.446 321.005,72.484 338.614,73.046 338.614 C 73.202 338.614,74.132 339.416,75.112 340.396 C 76.092 341.376,77.045 342.178,77.229 342.178 C 77.412 342.178,78.097 342.713,78.751 343.366 C 79.404 344.020,80.125 344.554,80.352 344.554 C 80.579 344.554,80.955 344.911,81.188 345.347 C 81.421 345.782,81.845 346.139,82.131 346.139 C 82.416 346.139,82.972 346.495,83.366 346.931 C 83.761 347.366,84.258 347.723,84.471 347.723 C 84.685 347.723,85.240 348.134,85.706 348.636 C 86.171 349.138,86.860 349.667,87.236 349.812 C 87.613 349.956,87.921 350.239,87.921 350.440 C 87.921 350.641,88.333 350.909,88.838 351.035 C 89.342 351.162,90.171 351.627,90.681 352.068 C 91.190 352.510,91.827 352.871,92.097 352.871 C 92.368 352.871,92.691 353.139,92.816 353.465 C 92.942 353.792,93.317 354.059,93.651 354.059 C 93.985 354.059,94.257 354.199,94.257 354.370 C 94.257 354.541,95.282 355.210,96.535 355.855 C 97.787 356.501,98.871 357.163,98.944 357.327 C 99.017 357.490,99.334 357.624,99.649 357.624 C 99.965 357.624,100.321 357.880,100.442 358.194 C 100.562 358.507,101.180 358.878,101.815 359.017 C 102.451 359.157,102.970 359.435,102.970 359.635 C 102.970 359.836,103.214 360.000,103.511 360.000 C 103.808 360.000,104.491 360.345,105.027 360.768 C 105.564 361.190,106.479 361.655,107.061 361.801 C 107.643 361.947,108.119 362.206,108.119 362.376 C 108.119 362.547,108.564 362.798,109.109 362.935 C 109.653 363.072,110.099 363.344,110.099 363.540 C 110.099 363.737,110.634 364.015,111.287 364.158 C 111.941 364.302,112.475 364.550,112.475 364.709 C 112.475 364.868,113.366 365.227,114.455 365.506 C 115.545 365.785,116.436 366.161,116.436 366.342 C 116.436 366.522,116.970 366.787,117.624 366.931 C 118.277 367.074,118.812 367.336,118.812 367.512 C 118.812 367.688,119.436 367.950,120.198 368.093 C 120.960 368.236,121.584 368.523,121.584 368.731 C 121.584 368.939,121.990 369.109,122.486 369.109 C 122.982 369.109,123.740 369.351,124.169 369.647 C 124.599 369.942,125.886 370.406,127.030 370.676 C 128.173 370.947,129.109 371.318,129.109 371.500 C 129.109 371.683,129.911 371.953,130.891 372.100 C 131.871 372.247,132.673 372.519,132.673 372.705 C 132.673 372.890,133.564 373.160,134.653 373.305 C 135.743 373.449,136.634 373.707,136.634 373.877 C 136.634 374.047,137.881 374.396,139.406 374.653 C 140.931 374.911,142.178 375.263,142.178 375.436 C 142.178 375.609,143.156 375.872,144.350 376.022 C 145.545 376.171,146.610 376.435,146.718 376.609 C 146.825 376.783,147.986 377.047,149.298 377.195 C 150.610 377.344,151.683 377.611,151.683 377.790 C 151.683 377.969,153.109 378.240,154.851 378.392 C 156.594 378.544,158.020 378.811,158.020 378.986 C 158.020 379.161,160.649 379.534,163.861 379.817 C 167.074 380.099,169.830 380.523,169.986 380.759 C 170.379 381.356,201.893 381.362,202.292 380.765 C 202.447 380.532,205.337 380.108,208.713 379.822 C 212.089 379.537,214.941 379.167,215.050 379.000 C 215.158 378.833,216.453 378.568,217.926 378.410 C 219.400 378.253,220.691 377.985,220.796 377.815 C 220.901 377.645,222.235 377.381,223.761 377.228 C 225.286 377.075,226.535 376.810,226.535 376.639 C 226.535 376.468,227.515 376.206,228.713 376.057 C 229.911 375.907,230.891 375.644,230.891 375.473 C 230.891 375.302,232.228 374.933,233.861 374.653 C 235.495 374.374,236.832 374.015,236.832 373.856 C 236.832 373.697,237.723 373.449,238.812 373.305 C 239.901 373.160,240.792 372.881,240.792 372.684 C 240.792 372.487,241.639 372.201,242.673 372.049 C 243.708 371.896,244.644 371.646,244.752 371.492 C 244.918 371.260,249.431 370.421,251.485 370.241 C 251.812 370.212,252.257 370.055,252.475 369.891 C 252.693 369.728,253.807 369.468,254.950 369.314 C 256.093 369.160,257.118 368.890,257.228 368.713 C 257.337 368.536,258.318 368.269,259.406 368.119 C 260.495 367.969,261.386 367.702,261.386 367.525 C 261.386 367.348,262.277 367.080,263.366 366.931 C 264.455 366.781,265.347 366.513,265.347 366.334 C 265.347 366.156,266.059 365.890,266.931 365.743 C 267.802 365.595,268.515 365.318,268.515 365.126 C 268.515 364.934,268.784 364.881,269.114 365.007 C 269.443 365.134,269.934 365.055,270.203 364.832 C 270.473 364.610,271.361 364.302,272.178 364.150 C 272.995 363.997,273.663 363.722,273.663 363.538 C 273.663 363.355,274.287 363.087,275.050 362.944 C 275.812 362.801,276.436 362.549,276.436 362.383 C 276.436 362.217,277.149 361.967,278.020 361.828 C 278.891 361.689,279.604 361.420,279.604 361.230 C 279.604 361.041,280.448 360.674,281.480 360.414 C 282.512 360.154,283.447 359.821,283.559 359.674 C 283.836 359.309,286.310 358.138,287.525 357.796 C 288.069 357.642,288.604 357.406,288.713 357.269 C 288.822 357.133,289.980 356.497,291.287 355.855 C 292.594 355.213,293.752 354.570,293.861 354.427 C 293.970 354.283,294.460 354.041,294.950 353.888 C 295.441 353.735,295.842 353.458,295.842 353.272 C 295.842 353.086,296.376 352.817,297.030 352.673 C 297.683 352.530,298.218 352.260,298.218 352.073 C 298.218 351.887,298.842 351.509,299.604 351.233 C 300.366 350.958,300.990 350.609,300.990 350.458 C 300.990 350.308,301.436 350.073,301.980 349.936 C 302.525 349.800,302.970 349.513,302.970 349.299 C 302.970 349.086,303.243 348.911,303.577 348.911 C 303.910 348.911,304.286 348.644,304.411 348.317 C 304.537 347.990,304.893 347.723,305.203 347.723 C 305.514 347.723,305.866 347.466,305.986 347.153 C 306.106 346.839,306.737 346.466,307.387 346.323 C 308.037 346.181,308.665 345.813,308.782 345.507 C 308.900 345.201,309.246 344.950,309.551 344.950 C 309.857 344.950,310.412 344.594,310.785 344.158 C 311.158 343.723,311.691 343.366,311.969 343.366 C 312.248 343.366,312.475 343.210,312.475 343.018 C 312.475 342.827,313.010 342.449,313.663 342.178 C 314.317 341.908,314.851 341.524,314.851 341.326 C 314.851 341.127,315.163 340.850,315.545 340.710 C 315.926 340.570,316.630 340.041,317.110 339.534 C 317.590 339.028,318.138 338.614,318.328 338.614 C 318.518 338.614,319.092 338.168,319.604 337.624 C 320.116 337.079,320.728 336.634,320.964 336.634 C 321.201 336.634,321.836 336.099,322.376 335.446 C 322.916 334.792,323.538 334.255,323.758 334.252 C 323.978 334.249,325.206 333.180,326.485 331.876 C 327.765 330.572,328.955 329.505,329.131 329.505 C 329.572 329.505,338.218 320.862,338.218 320.421 C 338.218 320.224,339.198 319.128,340.396 317.985 C 341.594 316.841,342.574 315.737,342.574 315.531 C 342.574 315.324,343.287 314.484,344.158 313.663 C 345.030 312.843,345.743 311.991,345.743 311.771 C 345.743 311.551,346.185 310.951,346.726 310.438 C 347.267 309.925,347.712 309.363,347.716 309.189 C 347.720 309.015,348.168 308.460,348.713 307.955 C 349.257 307.451,349.703 306.906,349.703 306.744 C 349.703 306.492,350.324 305.642,352.085 303.482 C 352.300 303.219,352.475 302.827,352.475 302.611 C 352.475 302.394,352.698 302.075,352.970 301.901 C 353.538 301.538,354.165 300.592,355.151 298.614 C 355.531 297.851,356.064 297.085,356.337 296.911 C 356.609 296.737,356.832 296.355,356.832 296.062 C 356.832 295.770,357.099 295.428,357.426 295.302 C 357.752 295.177,358.020 294.801,358.020 294.468 C 358.020 294.134,358.198 293.861,358.416 293.861 C 358.634 293.861,358.812 293.607,358.812 293.296 C 358.812 292.984,359.042 292.494,359.324 292.207 C 359.605 291.919,360.072 291.104,360.362 290.396 C 360.651 289.688,361.031 289.109,361.205 289.109 C 361.379 289.109,361.639 288.574,361.782 287.921 C 361.926 287.267,362.207 286.733,362.408 286.733 C 362.608 286.733,362.772 286.478,362.772 286.167 C 362.772 285.856,363.000 285.366,363.279 285.078 C 363.558 284.790,364.314 283.485,364.958 282.178 C 365.603 280.871,366.252 279.711,366.400 279.600 C 366.549 279.489,366.798 278.889,366.954 278.266 C 367.110 277.644,367.725 276.220,368.320 275.102 C 368.915 273.984,369.529 272.490,369.683 271.782 C 369.838 271.074,370.114 270.495,370.297 270.495 C 370.480 270.495,370.754 269.916,370.905 269.208 C 371.057 268.500,371.318 267.743,371.485 267.525 C 371.653 267.307,371.914 266.550,372.065 265.842 C 372.216 265.134,372.489 264.554,372.670 264.554 C 372.851 264.554,373.120 263.843,373.267 262.972 C 373.414 262.102,373.686 261.296,373.872 261.182 C 374.057 261.067,374.141 260.621,374.058 260.190 C 373.975 259.759,374.059 259.406,374.245 259.406 C 374.432 259.406,374.704 258.693,374.851 257.822 C 374.999 256.950,375.265 256.238,375.443 256.238 C 375.621 256.238,375.890 255.347,376.040 254.257 C 376.189 253.168,376.457 252.277,376.634 252.277 C 376.811 252.277,377.078 251.386,377.228 250.297 C 377.377 249.209,377.643 248.229,377.818 248.121 C 377.992 248.013,378.361 246.409,378.636 244.557 C 378.912 242.704,379.269 241.188,379.430 241.188 C 379.590 241.188,379.847 239.941,380.000 238.416 C 380.153 236.891,380.416 235.644,380.583 235.644 C 380.751 235.644,381.016 234.173,381.172 232.376 C 381.328 230.579,381.608 228.926,381.793 228.701 C 381.978 228.477,382.253 226.428,382.404 224.147 C 382.555 221.866,382.854 219.779,383.068 219.509 C 383.568 218.878,384.012 195.248,383.524 195.247 C 383.328 195.247,383.187 193.955,383.209 192.376 C 383.231 190.797,383.105 189.238,382.929 188.911 C 382.753 188.584,382.495 186.401,382.355 184.059 C 382.216 181.718,381.962 179.802,381.791 179.802 C 381.620 179.802,381.354 178.287,381.199 176.436 C 381.045 174.584,380.772 173.069,380.592 173.069 C 380.413 173.069,380.140 171.733,379.987 170.099 C 379.834 168.465,379.570 167.129,379.400 167.129 C 379.231 167.129,378.867 165.614,378.591 163.762 C 378.316 161.911,377.964 160.396,377.809 160.396 C 377.654 160.396,377.410 159.505,377.265 158.416 C 377.121 157.327,376.853 156.436,376.671 156.436 C 376.489 156.436,376.221 155.545,376.077 154.455 C 375.933 153.366,375.665 152.475,375.483 152.475 C 375.301 152.475,374.943 151.412,374.688 150.112 C 374.432 148.812,374.072 147.655,373.889 147.542 C 373.705 147.428,373.438 146.710,373.294 145.945 C 373.151 145.180,372.883 144.554,372.699 144.554 C 372.516 144.554,372.248 143.931,372.105 143.168 C 371.962 142.406,371.698 141.782,371.518 141.782 C 371.338 141.782,371.076 141.069,370.937 140.198 C 370.798 139.327,370.508 138.614,370.292 138.614 C 370.077 138.614,369.901 138.295,369.901 137.906 C 369.901 137.516,369.555 136.518,369.132 135.689 C 368.709 134.859,368.249 133.663,368.110 133.031 C 367.971 132.398,367.713 131.881,367.536 131.881 C 367.359 131.881,367.092 131.393,366.942 130.796 C 366.792 130.199,366.550 129.620,366.404 129.509 C 366.007 129.207,363.960 124.941,363.960 124.416 C 363.960 124.165,363.782 123.960,363.564 123.960 C 363.347 123.960,363.168 123.687,363.168 123.354 C 363.168 123.020,362.912 122.649,362.598 122.529 C 362.285 122.408,361.914 121.790,361.775 121.155 C 361.635 120.520,361.402 119.999,361.256 119.997 C 361.110 119.995,360.791 119.594,360.547 119.106 C 359.251 116.509,358.610 115.394,358.142 114.922 C 357.857 114.634,357.624 114.144,357.624 113.833 C 357.624 113.522,357.449 113.267,357.235 113.267 C 357.022 113.267,356.735 112.822,356.598 112.277 C 356.462 111.733,356.186 111.287,355.987 111.287 C 355.787 111.287,355.455 110.842,355.248 110.297 C 355.040 109.752,354.708 109.307,354.508 109.307 C 354.309 109.307,354.033 108.861,353.897 108.317 C 353.760 107.772,353.473 107.327,353.260 107.327 C 353.046 107.327,352.871 107.054,352.871 106.720 C 352.871 106.387,352.604 106.011,352.277 105.886 C 351.950 105.760,351.683 105.437,351.683 105.168 C 351.683 104.898,351.327 104.355,350.891 103.960 C 350.455 103.566,350.099 103.063,350.099 102.843 C 350.099 102.623,349.833 102.160,349.509 101.815 C 347.233 99.398,346.139 98.044,346.139 97.649 C 346.139 97.397,345.612 96.753,344.967 96.219 C 344.323 95.685,343.787 95.069,343.777 94.851 C 343.767 94.634,342.868 93.597,341.780 92.547 C 340.692 91.497,339.802 90.473,339.802 90.272 C 339.802 89.782,328.470 78.637,326.831 77.515 C 326.123 77.030,325.437 76.303,325.306 75.900 C 325.176 75.496,324.196 74.311,323.129 73.266 C 322.061 72.221,321.188 71.240,321.188 71.086 C 321.188 70.711,309.578 59.245,307.104 57.177 C 306.029 56.278,304.525 55.033,303.762 54.411 C 303.000 53.789,302.234 53.055,302.060 52.779 C 301.885 52.503,301.527 52.277,301.263 52.277 C 300.999 52.277,300.342 51.743,299.802 51.089 C 299.262 50.436,298.623 49.901,298.383 49.901 C 298.142 49.901,297.622 49.545,297.228 49.109 C 296.833 48.673,296.290 48.317,296.021 48.317 C 295.751 48.317,295.428 48.050,295.302 47.723 C 295.177 47.396,294.829 47.129,294.529 47.129 C 294.229 47.129,293.645 46.754,293.231 46.296 C 292.816 45.838,291.951 45.191,291.307 44.859 C 290.664 44.526,289.894 44.010,289.595 43.711 C 289.297 43.413,288.817 43.168,288.529 43.168 C 288.241 43.168,287.903 42.901,287.778 42.574 C 287.652 42.248,287.362 41.980,287.132 41.980 C 286.902 41.980,285.807 41.356,284.698 40.594 C 283.590 39.832,282.436 39.208,282.134 39.208 C 281.831 39.208,281.584 39.033,281.584 38.819 C 281.584 38.606,281.139 38.319,280.594 38.182 C 280.050 38.046,279.604 37.787,279.604 37.608 C 279.604 37.428,279.203 37.156,278.713 37.003 C 278.223 36.850,277.733 36.615,277.624 36.481 C 277.515 36.347,276.356 35.703,275.050 35.050 C 273.743 34.396,272.584 33.772,272.474 33.663 C 271.881 33.074,268.837 31.683,268.139 31.683 C 267.692 31.683,267.327 31.533,267.327 31.351 C 267.327 31.168,266.614 30.783,265.743 30.495 C 264.871 30.207,264.158 29.831,264.158 29.658 C 264.158 29.484,263.535 29.226,262.772 29.083 C 262.010 28.940,261.386 28.666,261.386 28.475 C 261.386 28.284,260.673 28.014,259.802 27.875 C 258.931 27.736,258.218 27.474,258.218 27.294 C 258.218 27.114,257.592 26.849,256.827 26.706 C 256.063 26.562,255.337 26.284,255.216 26.087 C 255.094 25.891,254.829 25.832,254.626 25.958 C 254.423 26.083,254.257 26.012,254.257 25.801 C 254.257 25.589,253.545 25.296,252.673 25.149 C 251.802 25.001,251.089 24.739,251.089 24.565 C 251.089 24.391,250.287 24.128,249.307 23.981 C 248.327 23.834,247.525 23.557,247.525 23.366 C 247.525 23.175,246.723 22.899,245.743 22.752 C 244.762 22.605,243.960 22.342,243.960 22.169 C 243.960 21.996,242.713 21.643,241.188 21.386 C 239.663 21.129,238.416 20.777,238.416 20.604 C 238.416 20.431,237.438 20.167,236.244 20.018 C 235.049 19.869,233.984 19.604,233.876 19.430 C 233.769 19.256,232.613 18.993,231.308 18.846 C 230.003 18.698,228.841 18.425,228.726 18.240 C 228.612 18.054,227.225 17.775,225.645 17.620 C 224.065 17.465,222.594 17.201,222.376 17.035 C 221.936 16.698,214.198 15.839,211.617 15.840 C 210.710 15.841,209.908 15.690,209.835 15.504 C 209.682 15.112,194.210 14.753,185.644 14.942 M233.069 36.059 C 236.554 36.499,239.711 36.953,240.085 37.066 C 240.458 37.179,242.240 37.515,244.045 37.812 C 248.635 38.567,254.943 40.053,259.802 41.524 C 261.218 41.953,263.089 42.510,263.960 42.763 C 282.433 48.123,309.551 62.926,323.038 75.011 C 323.305 75.250,324.647 76.422,326.019 77.615 C 327.392 78.808,330.570 81.837,333.082 84.347 C 337.074 88.337,338.610 89.977,342.732 94.653 C 344.755 96.948,351.683 106.127,351.683 106.512 C 351.683 106.742,351.817 106.931,351.980 106.931 C 352.144 106.932,352.807 107.778,353.454 108.813 C 354.101 109.847,354.858 110.929,355.137 111.216 C 355.416 111.504,355.644 111.979,355.644 112.273 C 355.644 112.566,355.777 112.865,355.941 112.937 C 356.411 113.146,357.881 115.373,358.189 116.344 C 358.343 116.830,358.635 117.228,358.839 117.228 C 359.042 117.228,359.208 117.459,359.208 117.741 C 359.208 118.024,359.486 118.603,359.825 119.028 C 360.500 119.875,361.304 121.389,365.491 129.703 C 367.027 132.752,368.400 135.738,368.541 136.337 C 368.683 136.936,368.943 137.426,369.120 137.426 C 369.297 137.426,369.568 137.999,369.722 138.700 C 369.876 139.401,370.149 140.247,370.329 140.581 C 370.974 141.776,372.277 145.060,372.280 145.496 C 372.281 145.740,372.532 146.419,372.836 147.003 C 373.141 147.587,373.517 148.657,373.672 149.379 C 373.826 150.102,374.090 150.871,374.257 151.089 C 374.425 151.307,374.692 152.109,374.851 152.871 C 375.011 153.634,375.279 154.436,375.448 154.653 C 375.617 154.871,375.973 156.119,376.238 157.426 C 376.503 158.733,376.858 159.980,377.028 160.198 C 377.198 160.416,377.463 161.530,377.617 162.673 C 377.770 163.816,378.044 164.843,378.224 164.954 C 378.404 165.066,378.676 166.316,378.828 167.732 C 378.979 169.149,379.247 170.397,379.422 170.505 C 379.597 170.613,379.867 171.902,380.022 173.371 C 380.176 174.839,380.424 176.129,380.571 176.238 C 380.829 176.428,381.906 185.269,382.574 192.673 C 382.985 197.224,382.982 210.495,382.569 215.644 C 382.099 221.496,381.037 230.126,380.618 231.485 C 380.417 232.139,380.131 233.832,379.983 235.248 C 379.835 236.663,379.577 238.000,379.411 238.218 C 379.244 238.436,378.980 239.667,378.824 240.955 C 378.668 242.242,378.386 243.579,378.197 243.925 C 378.008 244.271,377.677 245.356,377.461 246.337 C 376.508 250.666,375.807 253.316,375.450 253.943 C 375.238 254.315,374.949 255.340,374.808 256.220 C 374.667 257.101,374.412 257.822,374.242 257.822 C 374.071 257.822,373.806 258.579,373.653 259.505 C 373.501 260.431,373.232 261.368,373.056 261.587 C 372.678 262.058,371.601 264.926,371.012 267.030 C 370.784 267.847,370.456 268.515,370.284 268.515 C 370.111 268.515,369.850 269.228,369.703 270.099 C 369.556 270.970,369.273 271.683,369.074 271.683 C 368.875 271.683,368.713 271.909,368.713 272.184 C 368.713 272.460,368.356 273.350,367.921 274.163 C 367.485 274.976,367.129 275.887,367.129 276.188 C 367.129 276.489,366.873 276.947,366.560 277.207 C 366.247 277.466,365.877 278.201,365.737 278.839 C 365.596 279.478,365.318 280.000,365.117 280.000 C 364.917 280.000,364.749 280.223,364.746 280.495 C 364.742 280.767,364.252 281.911,363.657 283.035 C 363.061 284.160,362.040 286.119,361.386 287.388 C 360.733 288.657,360.056 289.875,359.882 290.095 C 359.372 290.742,356.832 294.710,356.832 294.861 C 356.832 295.039,352.074 302.237,350.993 303.693 C 347.267 308.715,344.342 312.440,342.505 314.504 C 341.268 315.893,339.875 317.475,339.408 318.020 C 333.299 325.148,320.143 336.929,312.872 341.782 C 312.383 342.109,311.778 342.571,311.527 342.809 C 311.277 343.047,310.642 343.472,310.116 343.753 C 309.589 344.035,308.969 344.425,308.738 344.621 C 308.018 345.228,303.267 348.289,301.188 349.485 C 300.099 350.112,299.119 350.729,299.010 350.857 C 298.901 350.985,297.772 351.624,296.500 352.277 C 295.229 352.931,292.734 354.220,290.956 355.142 C 289.177 356.064,287.500 356.821,287.228 356.825 C 286.955 356.829,286.733 357.010,286.733 357.228 C 286.733 357.446,286.510 357.629,286.238 357.636 C 285.965 357.643,284.851 358.087,283.762 358.623 C 282.673 359.158,281.559 359.598,281.287 359.600 C 281.015 359.602,280.792 359.767,280.792 359.965 C 280.792 360.164,280.079 360.447,279.208 360.594 C 278.337 360.741,277.624 361.003,277.624 361.175 C 277.624 361.347,276.955 361.675,276.139 361.904 C 273.795 362.560,271.124 363.586,270.713 363.988 C 270.506 364.191,269.971 364.358,269.525 364.359 C 269.078 364.360,268.251 364.602,267.686 364.897 C 267.121 365.192,265.985 365.559,265.162 365.714 C 264.339 365.868,263.375 366.155,263.021 366.351 C 262.356 366.718,258.579 367.728,255.446 368.376 C 254.465 368.579,253.372 368.905,253.015 369.100 C 252.659 369.296,251.278 369.579,249.946 369.729 C 248.614 369.880,247.525 370.123,247.525 370.270 C 247.525 370.417,245.698 370.756,243.465 371.023 C 241.233 371.291,237.713 371.763,235.644 372.073 C 217.413 374.800,208.163 374.748,188.911 371.813 C 148.365 365.632,113.329 346.684,86.151 316.238 C 80.499 309.906,79.124 308.116,73.065 299.208 C 71.127 296.358,66.320 288.382,64.586 285.139 C 62.105 280.498,59.025 273.973,57.767 270.693 C 57.350 269.604,56.844 268.356,56.644 267.921 C 55.585 265.616,52.628 257.517,52.089 255.446 C 51.947 254.901,51.676 254.099,51.486 253.663 C 51.295 253.228,50.679 251.178,50.116 249.109 C 49.553 247.040,48.928 244.812,48.728 244.158 C 48.528 243.505,48.252 242.257,48.114 241.386 C 47.976 240.515,47.706 239.446,47.514 239.010 C 47.170 238.232,46.677 235.600,45.919 230.495 C 45.709 229.079,45.359 226.851,45.140 225.545 C 44.284 220.421,43.875 210.220,44.098 199.604 C 44.329 188.619,44.343 188.488,46.734 173.267 C 46.940 171.960,47.287 170.267,47.505 169.505 C 47.724 168.743,48.283 166.515,48.748 164.554 C 49.845 159.931,51.052 155.605,51.459 154.838 C 51.636 154.505,51.913 153.614,52.075 152.858 C 52.236 152.103,52.506 151.307,52.673 151.089 C 52.841 150.871,53.108 150.086,53.267 149.344 C 53.543 148.054,55.630 142.574,56.848 139.940 C 57.166 139.254,57.426 138.589,57.426 138.464 C 57.426 137.915,61.822 128.723,64.222 124.252 C 76.923 100.598,94.814 80.339,115.644 66.026 C 123.938 60.326,129.833 56.859,138.226 52.744 C 145.887 48.987,146.097 48.892,149.505 47.632 C 151.030 47.068,152.455 46.475,152.673 46.315 C 152.891 46.154,153.693 45.837,154.455 45.610 C 156.144 45.107,159.121 44.063,160.198 43.596 C 161.665 42.960,164.542 42.013,166.337 41.577 C 167.317 41.338,169.545 40.786,171.287 40.350 C 182.719 37.490,193.329 35.764,202.772 35.228 C 211.269 34.747,225.857 35.147,233.069 36.059 M158.724 106.297 C 153.290 108.532,150.504 112.823,148.796 121.584 C 147.841 126.488,147.227 264.769,148.103 277.863 C 149.877 304.379,159.377 309.261,182.772 295.681 C 184.079 294.922,185.950 293.874,186.931 293.351 C 187.911 292.828,192.230 290.323,196.528 287.785 C 200.827 285.246,204.448 283.168,204.576 283.168 C 204.703 283.168,205.585 282.634,206.535 281.980 C 207.484 281.327,208.370 280.792,208.503 280.792 C 208.636 280.792,211.304 279.292,214.432 277.459 C 217.560 275.626,221.162 273.548,222.436 272.840 C 225.213 271.298,235.991 265.082,236.832 264.538 C 237.158 264.326,237.693 264.032,238.020 263.883 C 238.347 263.734,241.109 262.153,244.158 260.370 C 249.770 257.088,251.433 256.133,254.653 254.343 C 255.634 253.798,259.376 251.623,262.970 249.509 C 266.564 247.396,270.663 244.986,272.079 244.154 C 273.495 243.322,275.812 241.988,277.228 241.190 C 281.623 238.710,282.858 238.002,286.535 235.847 C 288.495 234.698,290.812 233.355,291.683 232.862 C 292.554 232.370,293.802 231.637,294.455 231.234 C 295.109 230.832,295.911 230.382,296.238 230.236 C 297.733 229.567,313.228 220.321,314.512 219.330 C 315.306 218.718,316.114 218.218,316.307 218.218 C 317.195 218.218,323.477 211.828,324.350 210.037 C 326.053 206.546,326.139 206.235,326.087 203.777 C 325.975 198.533,321.253 192.577,313.454 187.843 C 313.025 187.582,311.625 186.729,310.344 185.948 C 309.063 185.166,307.931 184.610,307.828 184.713 C 307.725 184.816,307.259 184.488,306.791 183.985 C 306.108 183.250,297.684 178.235,283.960 170.392 C 283.198 169.956,277.317 166.574,270.891 162.877 C 264.465 159.180,255.554 154.055,251.089 151.488 C 246.624 148.922,239.851 145.002,236.040 142.776 C 232.228 140.551,225.455 136.630,220.990 134.062 C 216.525 131.495,208.722 127.005,203.650 124.085 C 170.342 104.907,166.145 103.245,158.724 106.297 " stroke="none" fill="#b8b8b8" fill-rule="evenodd"></path><path id="path1" d="M202.772 35.228 C 195.676 35.631,191.910 36.132,181.782 38.021 C 178.777 38.582,175.040 39.411,171.287 40.350 C 169.545 40.786,167.317 41.338,166.337 41.577 C 164.542 42.013,161.665 42.960,160.198 43.596 C 159.121 44.063,156.144 45.107,154.455 45.610 C 153.693 45.837,152.891 46.154,152.673 46.315 C 152.455 46.475,151.030 47.068,149.505 47.632 C 146.097 48.892,145.887 48.987,138.226 52.744 C 129.833 56.859,123.938 60.326,115.644 66.026 C 94.814 80.339,76.923 100.598,64.222 124.252 C 61.822 128.723,57.426 137.915,57.426 138.464 C 57.426 138.589,57.166 139.254,56.848 139.940 C 55.630 142.574,53.543 148.054,53.267 149.344 C 53.108 150.086,52.841 150.871,52.673 151.089 C 52.506 151.307,52.236 152.103,52.075 152.858 C 51.913 153.614,51.636 154.505,51.459 154.838 C 51.052 155.605,49.845 159.931,48.748 164.554 C 48.283 166.515,47.724 168.743,47.505 169.505 C 47.287 170.267,46.940 171.960,46.734 173.267 C 44.343 188.488,44.329 188.619,44.098 199.604 C 43.875 210.220,44.284 220.421,45.140 225.545 C 45.359 226.851,45.709 229.079,45.919 230.495 C 46.677 235.600,47.170 238.232,47.514 239.010 C 47.706 239.446,47.976 240.515,48.114 241.386 C 48.252 242.257,48.528 243.505,48.728 244.158 C 48.928 244.812,49.553 247.040,50.116 249.109 C 50.679 251.178,51.295 253.228,51.486 253.663 C 51.676 254.099,51.947 254.901,52.089 255.446 C 52.628 257.517,55.585 265.616,56.644 267.921 C 56.844 268.356,57.350 269.604,57.767 270.693 C 59.025 273.973,62.105 280.498,64.586 285.139 C 66.320 288.382,71.127 296.358,73.065 299.208 C 79.124 308.116,80.499 309.906,86.151 316.238 C 113.329 346.684,148.365 365.632,188.911 371.813 C 208.163 374.748,217.413 374.800,235.644 372.073 C 237.713 371.763,241.233 371.291,243.465 371.023 C 245.698 370.756,247.525 370.417,247.525 370.270 C 247.525 370.123,248.614 369.880,249.946 369.729 C 251.278 369.579,252.659 369.296,253.015 369.100 C 253.372 368.905,254.465 368.579,255.446 368.376 C 258.579 367.728,262.356 366.718,263.021 366.351 C 263.375 366.155,264.355 365.870,265.199 365.718 C 266.042 365.566,266.953 365.266,267.223 365.053 C 267.492 364.839,267.992 364.771,268.332 364.902 C 268.689 365.038,268.849 364.973,268.710 364.748 C 268.577 364.532,268.888 364.356,269.402 364.356 C 269.916 364.356,270.506 364.191,270.713 363.988 C 271.124 363.586,273.795 362.560,276.139 361.904 C 276.955 361.675,277.624 361.347,277.624 361.175 C 277.624 361.003,278.337 360.741,279.208 360.594 C 280.079 360.447,280.792 360.164,280.792 359.965 C 280.792 359.767,281.015 359.602,281.287 359.600 C 281.559 359.598,282.673 359.158,283.762 358.623 C 284.851 358.087,285.965 357.643,286.238 357.636 C 286.510 357.629,286.733 357.446,286.733 357.228 C 286.733 357.010,286.955 356.829,287.228 356.825 C 287.500 356.821,289.177 356.064,290.956 355.142 C 292.734 354.220,295.229 352.931,296.500 352.277 C 297.772 351.624,298.901 350.985,299.010 350.857 C 299.119 350.730,300.491 349.880,302.060 348.970 C 303.628 348.060,305.020 347.139,305.153 346.923 C 305.286 346.708,305.874 346.624,306.460 346.737 C 307.218 346.884,307.315 346.850,306.796 346.622 C 306.163 346.343,306.253 346.202,307.489 345.536 C 308.271 345.115,308.911 344.645,308.911 344.491 C 308.911 344.337,309.246 344.105,309.656 343.975 C 310.066 343.845,310.762 343.432,311.203 343.058 C 311.644 342.683,312.401 342.109,312.884 341.782 C 320.416 336.688,333.304 325.142,339.408 318.020 C 339.875 317.475,341.268 315.893,342.505 314.504 C 344.342 312.440,347.267 308.715,350.993 303.693 C 352.074 302.237,356.832 295.039,356.832 294.861 C 356.832 294.710,359.372 290.742,359.882 290.095 C 360.056 289.875,360.733 288.657,361.386 287.388 C 362.040 286.119,363.061 284.160,363.657 283.035 C 364.252 281.911,364.742 280.767,364.746 280.495 C 364.749 280.223,364.917 280.000,365.117 280.000 C 365.318 280.000,365.596 279.478,365.737 278.839 C 365.877 278.201,366.247 277.466,366.560 277.207 C 366.873 276.947,367.129 276.489,367.129 276.188 C 367.129 275.887,367.485 274.976,367.921 274.163 C 368.356 273.350,368.713 272.460,368.713 272.184 C 368.713 271.909,368.875 271.683,369.074 271.683 C 369.273 271.683,369.556 270.970,369.703 270.099 C 369.850 269.228,370.111 268.515,370.284 268.515 C 370.456 268.515,370.784 267.847,371.012 267.030 C 371.669 264.686,372.695 262.015,373.097 261.604 C 373.300 261.397,373.465 260.807,373.465 260.293 C 373.465 259.780,373.618 259.453,373.804 259.569 C 373.991 259.684,374.059 259.338,373.956 258.800 C 373.853 258.262,373.945 257.822,374.161 257.822 C 374.376 257.822,374.667 257.101,374.808 256.220 C 374.949 255.340,375.238 254.315,375.450 253.943 C 375.807 253.316,376.508 250.666,377.461 246.337 C 377.677 245.356,378.008 244.271,378.197 243.925 C 378.386 243.579,378.668 242.242,378.824 240.955 C 378.980 239.667,379.246 238.436,379.416 238.218 C 379.585 238.000,379.854 236.574,380.013 235.050 C 380.173 233.525,380.451 231.881,380.633 231.396 C 380.814 230.912,381.156 228.506,381.391 226.050 C 381.626 223.594,382.003 220.858,382.229 219.971 C 382.688 218.162,383.319 194.833,382.902 195.091 C 382.755 195.182,382.555 193.874,382.457 192.183 C 382.189 187.559,380.877 176.463,380.571 176.238 C 380.424 176.129,380.176 174.839,380.022 173.371 C 379.867 171.902,379.597 170.613,379.422 170.505 C 379.247 170.397,378.979 169.149,378.828 167.732 C 378.676 166.316,378.404 165.066,378.224 164.954 C 378.044 164.843,377.770 163.816,377.617 162.673 C 377.463 161.530,377.198 160.416,377.028 160.198 C 376.858 159.980,376.503 158.733,376.238 157.426 C 375.973 156.119,375.617 154.871,375.448 154.653 C 375.279 154.436,375.011 153.634,374.851 152.871 C 374.692 152.109,374.425 151.307,374.257 151.089 C 374.090 150.871,373.826 150.102,373.672 149.379 C 373.517 148.657,373.141 147.587,372.836 147.003 C 372.532 146.419,372.281 145.740,372.280 145.496 C 372.277 145.060,370.974 141.776,370.329 140.581 C 370.149 140.247,369.876 139.401,369.722 138.700 C 369.568 137.999,369.297 137.426,369.120 137.426 C 368.943 137.426,368.683 136.936,368.541 136.337 C 368.400 135.738,367.027 132.752,365.491 129.703 C 361.304 121.389,360.500 119.875,359.825 119.028 C 359.486 118.603,359.208 118.024,359.208 117.741 C 359.208 117.459,359.042 117.228,358.839 117.228 C 358.635 117.228,358.343 116.830,358.189 116.344 C 357.881 115.373,356.411 113.146,355.941 112.937 C 355.777 112.865,355.644 112.566,355.644 112.273 C 355.644 111.979,355.416 111.504,355.137 111.216 C 354.858 110.929,354.101 109.847,353.454 108.813 C 352.807 107.778,352.144 106.932,351.980 106.931 C 351.817 106.931,351.683 106.742,351.683 106.512 C 351.683 106.127,344.755 96.948,342.732 94.653 C 338.610 89.977,337.074 88.337,333.082 84.347 C 330.570 81.837,327.392 78.808,326.019 77.615 C 324.647 76.422,323.305 75.250,323.038 75.011 C 309.551 62.926,282.433 48.123,263.960 42.763 C 263.089 42.510,261.218 41.953,259.802 41.524 C 254.943 40.053,248.635 38.567,244.045 37.812 C 242.240 37.515,240.458 37.179,240.085 37.066 C 235.392 35.641,214.043 34.590,202.772 35.228 M169.110 106.089 C 170.525 106.497,172.842 107.304,174.257 107.883 C 177.346 109.145,185.699 113.749,203.650 124.085 C 208.722 127.005,216.525 131.495,220.990 134.062 C 225.455 136.630,232.228 140.551,236.040 142.776 C 239.851 145.002,246.624 148.922,251.089 151.488 C 255.554 154.055,264.465 159.180,270.891 162.877 C 277.317 166.574,283.198 169.956,283.960 170.392 C 297.684 178.235,306.108 183.250,306.791 183.985 C 307.259 184.488,307.725 184.816,307.828 184.713 C 307.931 184.610,309.063 185.166,310.344 185.948 C 311.625 186.729,313.025 187.582,313.454 187.843 C 321.253 192.577,325.975 198.533,326.087 203.777 C 326.139 206.235,326.053 206.546,324.350 210.037 C 323.477 211.828,317.195 218.218,316.307 218.218 C 316.114 218.218,315.306 218.718,314.512 219.330 C 313.228 220.321,297.733 229.567,296.238 230.236 C 295.911 230.382,295.109 230.832,294.455 231.234 C 293.802 231.637,292.554 232.370,291.683 232.862 C 290.812 233.355,288.495 234.698,286.535 235.847 C 282.858 238.002,281.623 238.710,277.228 241.190 C 275.812 241.988,273.495 243.322,272.079 244.154 C 270.663 244.986,266.564 247.396,262.970 249.509 C 259.376 251.623,255.634 253.798,254.653 254.343 C 251.433 256.133,249.770 257.088,244.158 260.370 C 241.109 262.153,238.347 263.734,238.020 263.883 C 237.693 264.032,237.158 264.326,236.832 264.538 C 235.991 265.082,225.213 271.298,222.436 272.840 C 221.162 273.548,217.560 275.626,214.432 277.459 C 211.304 279.292,208.636 280.792,208.503 280.792 C 208.370 280.792,207.484 281.327,206.535 281.980 C 205.585 282.634,204.703 283.168,204.576 283.168 C 204.448 283.168,200.827 285.246,196.528 287.785 C 192.230 290.323,187.911 292.828,186.931 293.351 C 185.950 293.874,184.079 294.922,182.772 295.681 C 166.555 305.095,157.212 305.227,151.913 296.118 C 147.705 288.883,147.649 287.541,147.834 198.655 C 148.002 118.214,147.887 121.886,150.439 115.267 C 153.567 107.154,160.680 103.658,169.110 106.089 " stroke="none" fill="#000000" fill-rule="evenodd"></path></g></svg>